<svg width="24" height="24" viewBox="0 0 24 24" fill="none" xmlns="http://www.w3.org/2000/svg">
<path fill-rule="evenodd" clip-rule="evenodd" d="M2.75 14.25C2.75 14.6642 2.41421 15 2 15C1.58579 15 1.25 14.6642 1.25 14.25V7.25C1.25 5.17893 2.92893 3.5 5 3.5H19C21.0711 3.5 22.75 5.17893 22.75 7.25V16.25C22.75 18.3211 21.0711 20 19 20H15C14.5858 20 14.25 19.6642 14.25 19.25C14.25 18.8358 14.5858 18.5 15 18.5H19C20.2426 18.5 21.25 17.4926 21.25 16.25V7.25C21.25 6.00736 20.2426 5 19 5H5C3.75736 5 2.75 6.00736 2.75 7.25V14.25ZM5 9C5 8.58579 5.33579 8.25 5.75 8.25H18.25C18.6642 8.25 19 8.58579 19 9C19 9.41421 18.6642 9.75 18.25 9.75H5.75C5.33579 9.75 5 9.41421 5 9ZM1.75 20H9.15901L7.43934 21.7197C7.14645 22.0126 7.14645 22.4874 7.43934 22.7803C7.73223 23.0732 8.20711 23.0732 8.5 22.7803L11.5 19.7803C11.7929 19.4874 11.7929 19.0126 11.5 18.7197L8.5 15.7197C8.20711 15.4268 7.73223 15.4268 7.43934 15.7197C7.14645 16.0126 7.14645 16.4874 7.43934 16.7803L9.15901 18.5H1.75C1.33579 18.5 1 18.8358 1 19.25C1 19.6642 1.33579 20 1.75 20Z" fill="#6C78E6"/>
</svg>
