<svg width="24" height="24" viewBox="0 0 24 24" fill="none" xmlns="http://www.w3.org/2000/svg">
<path fill-rule="evenodd" clip-rule="evenodd" d="M12 2.25C8.90813 2.25 6.38623 4.69035 6.25534 7.75H7.75723C7.88664 5.51916 9.73671 3.75 12 3.75C14.2633 3.75 16.1134 5.51916 16.2428 7.75H17.7447C17.6138 4.69035 15.0919 2.25 12 2.25ZM4.25 13C4.25 11.4812 5.48122 10.25 7 10.25H17C18.5188 10.25 19.75 11.4812 19.75 13V19C19.75 20.5188 18.5188 21.75 17 21.75H7C5.48122 21.75 4.25 20.5188 4.25 19V13ZM7 11.75C6.30964 11.75 5.75 12.3096 5.75 13V19C5.75 19.6904 6.30964 20.25 7 20.25H17C17.6904 20.25 18.25 19.6904 18.25 19V13C18.25 12.3096 17.6904 11.75 17 11.75H7ZM11.25 15.5C11.25 15.0858 11.5858 14.75 12 14.75C12.4142 14.75 12.75 15.0858 12.75 15.5V16.5C12.75 16.9142 12.4142 17.25 12 17.25C11.5858 17.25 11.25 16.9142 11.25 16.5V15.5Z" fill="#706D76"/>
</svg>
