<svg width="24" height="24" viewBox="0 0 24 24" fill="none" xmlns="http://www.w3.org/2000/svg">
<path fill-rule="evenodd" clip-rule="evenodd" d="M19.8419 8.60552C20.0077 8.84991 20.2838 8.99881 20.579 9L20.75 9C22.2688 9 23.5 10.2312 23.5 11.75C23.5 13.2688 22.2688 14.5 20.75 14.5L20.664 14.5C20.3043 14.5014 19.9807 14.7157 19.8394 15.0454C19.6893 15.3855 19.7559 15.7795 20.0083 16.0377L20.0699 16.0993C20.5864 16.6152 20.8766 17.3151 20.8766 18.045C20.8766 18.7747 20.5865 19.4747 20.0708 19.9898C19.5548 20.5064 18.8549 20.7966 18.125 20.7966C17.3952 20.7966 16.6952 20.5065 16.1798 19.9904L16.1277 19.9382C15.8611 19.6774 15.4675 19.6084 15.123 19.7604C14.7965 19.9004 14.5814 20.2235 14.58 20.579L14.58 20.75C14.58 22.2688 13.3488 23.5 11.83 23.5C10.3112 23.5 9.08 22.2688 9.08 20.75C9.07217 20.3105 8.84008 19.9829 8.43395 19.8308C8.11261 19.6885 7.71906 19.7573 7.46233 20.0083L7.40072 20.0699C6.88481 20.5864 6.18488 20.8766 5.455 20.8766C4.72526 20.8766 4.02528 20.5865 3.51016 20.0708C2.99358 19.5548 2.70343 18.8549 2.70343 18.125C2.70343 17.3952 2.99353 16.6952 3.50957 16.1798L3.56177 16.1277C3.82256 15.8611 3.89156 15.4675 3.7396 15.123C3.59964 14.7965 3.27651 14.5814 2.921 14.58L2.75 14.58C1.23122 14.58 0 13.3488 0 11.83C0 10.3112 1.23122 9.08 2.75 9.08C3.18946 9.07217 3.51708 8.84008 3.66925 8.43395C3.81151 8.11261 3.74266 7.71906 3.49165 7.46233L3.43006 7.40072C2.91358 6.88481 2.62343 6.18488 2.62343 5.455C2.62343 4.72526 2.91348 4.02528 3.42918 3.51016C3.94519 2.99358 4.64512 2.70343 5.375 2.70343C6.10481 2.70343 6.80476 2.99353 7.32023 3.50957L7.37234 3.56177C7.63746 3.82113 8.03058 3.89241 8.36718 3.74385C8.41513 3.72269 8.46514 3.70662 8.51638 3.6959C8.84991 3.49231 8.99881 3.21617 9 2.921L9 2.75C9 1.23122 10.2312 0 11.75 0C13.2688 0 14.5 1.23122 14.5 2.75L14.5 2.83599C14.5014 3.19776 14.7176 3.52012 15.0552 3.6649C15.3874 3.81151 15.7809 3.74266 16.0377 3.49165L16.0993 3.43006C16.6152 2.91358 17.3151 2.62343 18.045 2.62343C18.7747 2.62343 19.4747 2.91348 19.9898 3.42918C20.5064 3.94519 20.7966 4.64512 20.7966 5.375C20.7966 6.10481 20.5065 6.80476 19.9904 7.32023L19.9382 7.37234C19.6789 7.63746 19.6076 8.03058 19.7561 8.36718C19.7773 8.41513 19.7934 8.46514 19.8041 8.51638L19.8419 8.60552ZM18.8784 6.31081L18.9304 6.25898C19.1647 6.02489 19.2966 5.70672 19.2966 5.375C19.2966 5.04322 19.1647 4.72507 18.9286 4.48925C18.6949 4.25525 18.3767 4.12343 18.045 4.12343C17.7132 4.12343 17.3951 4.25532 17.1597 4.49092L17.0863 4.56419C16.3893 5.24569 15.3402 5.43028 14.464 5.04349C13.5799 4.66433 13.0038 3.80463 13 2.83585L13 2.75C13 2.05964 12.4404 1.5 11.75 1.5C11.0596 1.5 10.5 2.05964 10.5 2.75002L10.5 2.92703C10.4966 3.77422 10.0492 4.51763 9.2979 4.97623L9.07697 5.11108L8.89353 5.14947C8.01311 5.50111 7.00513 5.30093 6.31081 4.62155L6.25898 4.56964C6.02489 4.33528 5.70672 4.20343 5.375 4.20343C5.04322 4.20343 4.72507 4.33533 4.48925 4.57141C4.25525 4.80514 4.12343 5.12332 4.12343 5.455C4.12343 5.78677 4.25532 6.10492 4.49092 6.34026L4.56419 6.41369C5.24292 7.10789 5.4323 8.15697 5.07389 8.96022C4.70507 9.94463 3.82988 10.561 2.75 10.58C2.05964 10.58 1.5 11.1396 1.5 11.83C1.5 12.5204 2.05964 13.08 2.75002 13.08L2.92703 13.08C3.88072 13.0838 4.743 13.6564 5.11202 14.5177C5.51045 15.421 5.32525 16.47 4.62155 17.1892L4.56964 17.241C4.33528 17.4751 4.20343 17.7933 4.20343 18.125C4.20343 18.4568 4.33533 18.7749 4.57141 19.0108C4.80514 19.2447 5.12332 19.3766 5.455 19.3766C5.78677 19.3766 6.10492 19.2447 6.34026 19.0091L6.41369 18.9358C7.10789 18.2571 8.15697 18.0677 8.96022 18.4261C9.94463 18.7949 10.561 19.6701 10.58 20.75C10.58 21.4404 11.1396 22 11.83 22C12.5204 22 13.08 21.4404 13.08 20.75L13.08 20.573C13.0838 19.6193 13.6564 18.757 14.5177 18.388C15.421 17.9896 16.47 18.1747 17.1892 18.8784L17.241 18.9304C17.4751 19.1647 17.7933 19.2966 18.125 19.2966C18.4568 19.2966 18.7749 19.1647 19.0108 18.9286C19.2447 18.6949 19.3766 18.3767 19.3766 18.045C19.3766 17.7132 19.2447 17.3951 19.0091 17.1597L18.9358 17.0863C18.2504 16.3853 18.072 15.3353 18.4606 14.4546C18.8376 13.575 19.7008 13.0038 20.6642 13L20.75 13C21.4404 13 22 12.4404 22 11.75C22 11.0596 21.4404 10.5 20.75 10.5L20.573 10.5C19.7818 10.4968 19.0438 10.101 18.6006 9.44756L18.5182 9.32623L18.3659 8.96713L18.3505 8.89353C17.9989 8.01311 18.1991 7.00513 18.8784 6.31081ZM8.25 11.75C8.25 13.683 9.817 15.25 11.75 15.25C13.683 15.25 15.25 13.683 15.25 11.75C15.25 9.817 13.683 8.25 11.75 8.25C9.817 8.25 8.25 9.817 8.25 11.75ZM13.75 11.75C13.75 12.8546 12.8546 13.75 11.75 13.75C10.6454 13.75 9.75 12.8546 9.75 11.75C9.75 10.6454 10.6454 9.75 11.75 9.75C12.8546 9.75 13.75 10.6454 13.75 11.75Z" fill="#706D76"/>
</svg>
