<svg width="40" height="40" viewBox="0 0 40 40" fill="none" xmlns="http://www.w3.org/2000/svg">
<path d="M20 40C8.9543 40 0 31.0457 0 20C0 8.9543 8.9543 0 20 0C31.0457 0 40 8.9543 40 20C40 31.0457 31.0457 40 20 40Z" fill="#403A47"/>
<path fill-rule="evenodd" clip-rule="evenodd" d="M19.25 10.75C19.25 10.3358 19.5858 10 20 10C20.4142 10 20.75 10.3358 20.75 10.75V12.2572C22.9808 12.3866 24.75 14.2367 24.75 16.5C24.75 16.9142 24.4142 17.25 24 17.25C23.5858 17.25 23.25 16.9142 23.25 16.5C23.25 15.0655 22.1516 13.8875 20.75 13.7612V19.2572C22.9808 19.3866 24.75 21.2367 24.75 23.5C24.75 25.7633 22.9808 27.6134 20.75 27.7428V29.25C20.75 29.6642 20.4142 30 20 30C19.5858 30 19.25 29.6642 19.25 29.25V27.7428C17.0192 27.6134 15.25 25.7633 15.25 23.5C15.25 23.0858 15.5858 22.75 16 22.75C16.4142 22.75 16.75 23.0858 16.75 23.5C16.75 24.9345 17.8484 26.1125 19.25 26.2388V20.7428C17.0192 20.6134 15.25 18.7633 15.25 16.5C15.25 14.2367 17.0192 12.3866 19.25 12.2572V10.75ZM20.75 26.2388C22.1516 26.1125 23.25 24.9345 23.25 23.5C23.25 22.0655 22.1516 20.8875 20.75 20.7612V26.2388ZM16.75 16.5C16.75 15.0655 17.8484 13.8875 19.25 13.7612V19.2388C17.8484 19.1125 16.75 17.9345 16.75 16.5Z" fill="white"/>
</svg>
