<svg width="262" height="158" viewBox="0 0 262 158" fill="none" xmlns="http://www.w3.org/2000/svg">
<path fill-rule="evenodd" clip-rule="evenodd" d="M0 2.42592C0 1.08612 1.08612 0 2.42593 0H259.574C260.914 0 262 1.08612 262 2.42593V156.625C262 157.965 260.914 159.051 259.574 159.051H2.42593C1.08613 159.051 0 157.965 0 156.625V2.42592Z" fill="#352F3D"/>
<mask id="mask0_79_61663" style="mask-type:luminance" maskUnits="userSpaceOnUse" x="0" y="0" width="262" height="160">
<path fill-rule="evenodd" clip-rule="evenodd" d="M0 2.42592C0 1.08612 1.08612 0 2.42593 0H259.574C260.914 0 262 1.08612 262 2.42593V156.625C262 157.965 260.914 159.051 259.574 159.051H2.42593C1.08613 159.051 0 157.965 0 156.625V2.42592Z" fill="white"/>
</mask>
<g mask="url(#mask0_79_61663)">
<path fill-rule="evenodd" clip-rule="evenodd" d="M317.743 78.662L333.17 54.1893L328.245 51.8209L333.914 42.5069L306.028 28.6637L300.155 38.3121L58.7228 -77.7957L43.2959 -53.323L285.14 62.9825L163.739 262.44L191.626 276.283L313.23 76.4913L317.743 78.662ZM260.87 70.0223L260.905 69.9673L256.246 67.7271L233.762 56.5657L233.598 56.8353L-13.5429 -62.0177L-28.9697 -37.545L218.582 81.5057L91.4736 290.342L119.36 304.185L261.649 70.4089L260.87 70.0223ZM192.618 87.4604L192.653 87.406L188.039 85.1874L165.511 74.0042L165.347 74.2743L-81.7948 -44.579L-97.2217 -20.1063L150.331 98.9447L23.2227 307.78L51.1091 321.623L193.398 87.8474L192.618 87.4604ZM128.278 105.065L128.416 104.845L109.803 95.8934L100.642 91.3458L100.575 91.4557L-146.031 -27.1403L-161.458 -2.66756L85.5596 116.126L-41.6465 325.122L-13.76 338.965L128.529 105.189L128.278 105.065ZM-82.011 356.404L-109.897 342.561L17.3085 133.565L-229.709 14.7712L-214.282 -9.70147L32.3243 108.894L32.3912 108.784L41.5629 113.337L60.1653 122.284L60.0269 122.503L60.2777 122.628L-82.011 356.404Z" fill="#403A47"/>
</g>
</svg>
