<svg width="40" height="40" viewBox="0 0 40 40" fill="none" xmlns="http://www.w3.org/2000/svg">
<path d="M20 40C8.9543 40 0 31.0457 0 20C0 8.9543 8.9543 0 20 0C31.0457 0 40 8.9543 40 20C40 31.0457 31.0457 40 20 40Z" fill="#403A47"/>
<path fill-rule="evenodd" clip-rule="evenodd" d="M26.0401 14.5806C26.3297 14.8767 26.3245 15.3515 26.0285 15.6412C25.7324 15.9308 25.2575 15.9256 24.9679 15.6296C23.799 14.4349 22.2049 13.75 20.5 13.75C17.9371 13.75 15.7345 15.2926 14.7701 17.5H19.75C20.1642 17.5 20.5 17.8358 20.5 18.25C20.5 18.6642 20.1642 19 19.75 19H14.3296C14.2772 19.3256 14.25 19.6596 14.25 20C14.25 20.3404 14.2772 20.6744 14.3296 21H19.75C20.1642 21 20.5 21.3358 20.5 21.75C20.5 22.1642 20.1642 22.5 19.75 22.5H14.7701C15.7345 24.7074 17.9371 26.25 20.5 26.25C22.2058 26.25 23.8007 25.5644 24.9697 24.3686C25.2592 24.0724 25.7341 24.067 26.0303 24.3565C26.3265 24.6461 26.3319 25.1209 26.0423 25.4171C24.594 26.8988 22.6137 27.75 20.5 27.75C17.0945 27.75 14.2021 25.5535 13.1621 22.5H11.25C10.8358 22.5 10.5 22.1642 10.5 21.75C10.5 21.3358 10.8358 21 11.25 21H12.8139C12.7717 20.6726 12.75 20.3389 12.75 20C12.75 19.6611 12.7717 19.3274 12.8139 19H11.25C10.8358 19 10.5 18.6642 10.5 18.25C10.5 17.8358 10.8358 17.5 11.25 17.5H13.1621C14.2021 14.4465 17.0945 12.25 20.5 12.25C22.6126 12.25 24.5919 13.1003 26.0401 14.5806Z" fill="white"/>
</svg>
