<svg width="24" height="24" viewBox="0 0 24 24" fill="none" xmlns="http://www.w3.org/2000/svg">
<path fill-rule="evenodd" clip-rule="evenodd" d="M10.0617 2.07928L3.06169 7.52373C2.39183 8.04473 2.00003 8.84582 2.00002 9.69444L2 19.7164C2 21.2352 3.23122 22.4664 4.75 22.4664L18.75 22.4664C20.2688 22.4664 21.5 21.2352 21.5 19.7164V9.69445C21.5 8.84582 21.1082 8.04473 20.4384 7.52373L13.4384 2.07928C12.4453 1.30691 11.0547 1.30691 10.0617 2.07928ZM3.50002 9.69444C3.50002 9.30871 3.67812 8.94458 3.9826 8.70776L10.9826 3.26331C11.434 2.91223 12.0661 2.91223 12.5174 3.26331L19.5175 8.70776C19.8219 8.94458 20 9.30871 20 9.69445V19.7164C20 20.4068 19.4404 20.9664 18.75 20.9664L4.75 20.9664C4.05964 20.9664 3.5 20.4068 3.5 19.7164L3.50002 9.69444ZM11.6832 8.71624L9.15212 13.1002C8.32369 14.5351 8.81532 16.3699 10.2502 17.1983C10.894 17.57 11.6425 17.6857 12.3564 17.5383L12.475 17.5139L12.5897 17.4753C12.7783 17.4118 12.9606 17.3296 13.1342 17.2294C14.569 16.401 15.0607 14.5662 14.2322 13.1313L11.6832 8.71624ZM12.3842 15.9303C13.1016 15.5161 13.3474 14.5987 12.9332 13.8813L11.6832 11.7162L10.4512 13.8502C10.0369 14.5677 10.2828 15.485 11.0002 15.8993C11.3203 16.0841 11.6933 16.1436 12.0531 16.0693L12.0828 16.0632L12.1115 16.0536C12.2059 16.0218 12.2972 15.9806 12.3842 15.9303Z" fill="#6C78E6"/>
</svg>
