<svg width="22" height="20" viewBox="0 0 22 20" fill="none" xmlns="http://www.w3.org/2000/svg">
<path d="M20.3467 6.35719L19.9253 5.96037L16.8754 3.08817C13.8244 0.0345528 9.09225 -0.63156 5.29294 1.46334C1.48994 3.56028 -0.467707 7.91969 0.49162 12.1552C1.45095 16.3907 5.09596 19.4812 9.43135 19.7348C13.7667 19.9884 17.7472 17.3441 19.1939 13.2493C19.3319 12.8588 19.1271 12.4303 18.7366 12.2923C18.346 12.1543 17.9175 12.3591 17.7796 12.7496C16.5555 16.2144 13.1874 18.452 9.51895 18.2373C5.85054 18.0227 2.7663 15.4078 1.95457 11.8239C1.14283 8.23996 2.7993 4.55122 6.01722 2.77689C9.23514 1.00256 13.2387 1.57043 15.8308 4.16437L19.2127 7.34948H15.0967C14.6825 7.34948 14.3467 7.68527 14.3467 8.09948C14.3467 8.51369 14.6825 8.84948 15.0967 8.84948H21.0967C21.5109 8.84948 21.8467 8.51369 21.8467 8.09948V2.09948C21.8467 1.68527 21.5109 1.34948 21.0967 1.34948C20.6825 1.34948 20.3467 1.68527 20.3467 2.09948V6.35719Z" fill="#6C78E6"/>
</svg>
