<svg width="24" height="24" viewBox="0 0 24 24" fill="none" xmlns="http://www.w3.org/2000/svg">
<path fill-rule="evenodd" clip-rule="evenodd" d="M17.75 10.75C14.9886 10.75 12.75 8.51142 12.75 5.75C12.75 2.98858 14.9886 0.75 17.75 0.75C20.5114 0.75 22.75 2.98858 22.75 5.75C22.75 8.51142 20.5114 10.75 17.75 10.75ZM17.75 13C17.3358 13 17 13.3358 17 13.75V20.75C17 21.4404 16.4404 22 15.75 22H6.75C6.05964 22 5.5 21.4404 5.5 20.75V4.75C5.5 4.05964 6.05964 3.5 6.75 3.5H10.75C11.1642 3.5 11.5 3.16421 11.5 2.75C11.5 2.33579 11.1642 2 10.75 2H6.75C5.23122 2 4 3.23122 4 4.75V20.75C4 22.2688 5.23122 23.5 6.75 23.5H15.75C17.2688 23.5 18.5 22.2688 18.5 20.75V13.75C18.5 13.3358 18.1642 13 17.75 13ZM11.25 20.25C11.8023 20.25 12.25 19.8023 12.25 19.25C12.25 18.6977 11.8023 18.25 11.25 18.25C10.6977 18.25 10.25 18.6977 10.25 19.25C10.25 19.8023 10.6977 20.25 11.25 20.25ZM21.25 5.75C21.25 7.683 19.683 9.25 17.75 9.25C15.817 9.25 14.25 7.683 14.25 5.75C14.25 3.817 15.817 2.25 17.75 2.25C19.683 2.25 21.25 3.817 21.25 5.75Z" fill="#6C78E6"/>
</svg>
