<svg width="148" height="148" viewBox="0 0 148 148" fill="none" xmlns="http://www.w3.org/2000/svg">
<circle cx="74" cy="74" r="74" fill="#403A47"/>
<path fill-rule="evenodd" clip-rule="evenodd" d="M46 23H92C92.0909 23 92.1805 23.0061 92.2682 23.0178C92.7796 22.9383 93.3183 23.1259 93.6669 23.5575L114.667 49.5575C114.944 49.9002 115.045 50.3277 114.982 50.7312C114.994 50.8191 115 50.9088 115 51V114C115 119.523 110.523 124 105 124H46C40.4772 124 36 119.523 36 114V33C36 27.4772 40.4772 23 46 23ZM110.36 49L94 28.7444V48C94 48.5523 94.4477 49 95 49H110.36ZM95 52C92.7909 52 91 50.2091 91 48V26H46C42.134 26 39 29.134 39 33V114C39 117.866 42.134 121 46 121H105C108.866 121 112 117.866 112 114V52H95Z" fill="#6C78E6"/>
<path fill-rule="evenodd" clip-rule="evenodd" d="M55.8255 59.5607C55.2397 58.9749 55.2397 58.0251 55.8255 57.4393C56.4113 56.8536 57.361 56.8536 57.9468 57.4393L62.3862 61.8787L66.8255 57.4393C67.4113 56.8536 68.361 56.8536 68.9468 57.4393C69.5326 58.0251 69.5326 58.9749 68.9468 59.5607L64.5075 64L68.9468 68.4393C69.5326 69.0251 69.5326 69.9749 68.9468 70.5607C68.361 71.1464 67.4113 71.1464 66.8255 70.5607L62.3862 66.1213L57.9468 70.5607C57.361 71.1464 56.4113 71.1464 55.8255 70.5607C55.2397 69.9749 55.2397 69.0251 55.8255 68.4393L60.2648 64L55.8255 59.5607ZM104.645 87.4432C104.885 86.65 104.435 85.8132 103.642 85.574C94.7165 82.8826 85.3932 81.5 75.8862 81.5C66.6784 81.5 57.6423 82.7969 48.9714 85.3245C48.6693 85.4126 48.3676 85.5022 48.0663 85.5932C47.2734 85.833 46.8249 86.6701 47.0646 87.4631C47.3043 88.2561 48.1415 88.7046 48.9344 88.4649C49.2262 88.3767 49.5184 88.29 49.811 88.2046C58.2098 85.7563 66.9633 84.5 75.8862 84.5C76.8884 84.5 77.8885 84.5159 78.8862 84.5475V94C78.8862 98.6944 82.6917 102.5 87.3862 102.5C92.0806 102.5 95.8862 98.6944 95.8862 94V86.6554C98.207 87.164 100.505 87.7614 102.776 88.4463C103.569 88.6855 104.406 88.2364 104.645 87.4432ZM81.8862 84.6904C83.2246 84.7756 84.5581 84.8893 85.8862 85.0312V93.5C85.8862 94.3284 86.5577 95 87.3862 95C88.2146 95 88.8862 94.3284 88.8862 93.5V85.4012C90.2259 85.5885 91.5595 85.8048 92.8862 86.0499V94C92.8862 97.0376 90.4237 99.5 87.3862 99.5C84.3486 99.5 81.8862 97.0376 81.8862 94V84.6904ZM82.8255 57.4393C82.2397 58.0251 82.2397 58.9749 82.8255 59.5607L87.2648 64L82.8255 68.4393C82.2397 69.0251 82.2397 69.9749 82.8255 70.5607C83.4113 71.1464 84.361 71.1464 84.9468 70.5607L89.3862 66.1213L93.8255 70.5607C94.4113 71.1464 95.361 71.1464 95.9468 70.5607C96.5326 69.9749 96.5326 69.0251 95.9468 68.4393L91.5075 64L95.9468 59.5607C96.5326 58.9749 96.5326 58.0251 95.9468 57.4393C95.361 56.8536 94.4113 56.8536 93.8255 57.4393L89.3862 61.8787L84.9468 57.4393C84.361 56.8536 83.4113 56.8536 82.8255 57.4393Z" fill="#F678BA"/>
</svg>
