<svg width="24" height="24" viewBox="0 0 24 24" fill="none" xmlns="http://www.w3.org/2000/svg">
<path fill-rule="evenodd" clip-rule="evenodd" d="M4.75 22.75V2.75H19.25V22.75H20.75V3C20.75 2.0335 19.9665 1.25 19 1.25H5C4.0335 1.25 3.25 2.0335 3.25 3V22.75H4.75ZM8 6.25C7.58579 6.25 7.25 6.58579 7.25 7C7.25 7.41421 7.58579 7.75 8 7.75H16C16.4142 7.75 16.75 7.41421 16.75 7C16.75 6.58579 16.4142 6.25 16 6.25H8ZM8 10.25C7.58579 10.25 7.25 10.5858 7.25 11C7.25 11.4142 7.58579 11.75 8 11.75H16C16.4142 11.75 16.75 11.4142 16.75 11C16.75 10.5858 16.4142 10.25 16 10.25H8ZM7.25 15C7.25 14.5858 7.58579 14.25 8 14.25H12C12.4142 14.25 12.75 14.5858 12.75 15C12.75 15.4142 12.4142 15.75 12 15.75H8C7.58579 15.75 7.25 15.4142 7.25 15ZM8.75 22V22.75H7.25V22C7.25 21.5858 7.58579 21.25 8 21.25C8.41421 21.25 8.75 21.5858 8.75 22ZM12.75 22.75V22C12.75 21.5858 12.4142 21.25 12 21.25C11.5858 21.25 11.25 21.5858 11.25 22V22.75H12.75ZM16.75 22V22.75H15.25V22C15.25 21.5858 15.5858 21.25 16 21.25C16.4142 21.25 16.75 21.5858 16.75 22Z" fill="#706D76"/>
</svg>
