<svg width="24" height="24" viewBox="0 0 24 24" fill="none" xmlns="http://www.w3.org/2000/svg">
<g clip-path="url(#clip0_12881_13460)">
<path d="M9 0.416654C9.14642 0.594573 9.23612 0.812312 9.25751 1.04174C9.2789 1.27116 9.231 1.50173 9.12 1.70365C8.25279 3.29587 7.7999 5.0806 7.803 6.89365C7.803 12.9252 12.72 17.8092 18.78 17.8092C19.5705 17.8092 20.34 17.7267 21.0795 17.5692C21.3062 17.5201 21.5423 17.5388 21.7584 17.6231C21.9745 17.7074 22.1609 17.8535 22.2945 18.0432C22.4355 18.2403 22.5074 18.4786 22.499 18.7208C22.4905 18.9631 22.4023 19.1957 22.248 19.3827C21.0715 20.8278 19.5874 21.9922 17.9038 22.7909C16.2201 23.5897 14.3795 24.0026 12.516 23.9997C5.601 23.9997 0 18.4287 0 11.5647C0 6.39865 3.171 1.96765 7.686 0.0896543C7.91091 -0.00539793 8.16058 -0.024907 8.39752 0.0340578C8.63447 0.0930225 8.84588 0.227277 9 0.416654ZM7.287 1.96615C5.55091 2.8974 4.09955 4.28162 3.0872 5.9717C2.07484 7.66178 1.5393 9.59457 1.5375 11.5647C1.5375 17.5947 6.456 22.4787 12.516 22.4787C13.9672 22.4812 15.4044 22.1958 16.7446 21.6392C18.0847 21.0825 19.3012 20.2656 20.3235 19.2357C19.818 19.2987 19.3035 19.3302 18.78 19.3302C11.865 19.3302 6.2655 13.7592 6.2655 6.89515C6.2655 5.14465 6.6285 3.47815 7.287 1.96615Z" fill="#706D76"/>
<path d="M16.1914 4.72195C16.2129 4.65699 16.2543 4.60047 16.3098 4.5604C16.3653 4.52034 16.432 4.49877 16.5004 4.49877C16.5688 4.49877 16.6355 4.52034 16.691 4.5604C16.7464 4.60047 16.7879 4.65699 16.8094 4.72195L17.3899 6.46495C17.6494 7.24195 18.2584 7.85095 19.0354 8.11045L20.7784 8.69095C20.8433 8.71246 20.8999 8.75389 20.9399 8.80937C20.98 8.86484 21.0016 8.93152 21.0016 8.99995C21.0016 9.06838 20.98 9.13507 20.9399 9.19054C20.8999 9.24601 20.8433 9.28744 20.7784 9.30895L19.0354 9.88945C18.6522 10.0171 18.304 10.2323 18.0183 10.5179C17.7327 10.8035 17.5176 11.1517 17.3899 11.535L16.8094 13.278C16.7879 13.3429 16.7464 13.3994 16.691 13.4395C16.6355 13.4796 16.5688 13.5011 16.5004 13.5011C16.432 13.5011 16.3653 13.4796 16.3098 13.4395C16.2543 13.3994 16.2129 13.3429 16.1914 13.278L15.6109 11.535C15.4832 11.1517 15.268 10.8035 14.9824 10.5179C14.6968 10.2323 14.3486 10.0171 13.9654 9.88945L12.2224 9.30895C12.1574 9.28744 12.1009 9.24601 12.0608 9.19054C12.0208 9.13507 11.9992 9.06838 11.9992 8.99995C11.9992 8.93152 12.0208 8.86484 12.0608 8.80937C12.1009 8.75389 12.1574 8.71246 12.2224 8.69095L13.9654 8.11045C14.3486 7.98278 14.6968 7.76761 14.9824 7.48199C15.268 7.19637 15.4832 6.84816 15.6109 6.46495L16.1914 4.72195ZM20.7949 0.148451C20.8097 0.105741 20.8374 0.0687051 20.8743 0.0424936C20.9111 0.0162821 20.9552 0.00219727 21.0004 0.00219727C21.0456 0.00219727 21.0897 0.0162821 21.1265 0.0424936C21.1633 0.0687051 21.1911 0.105741 21.2059 0.148451L21.5929 1.30945C21.7654 1.82845 22.1719 2.23495 22.6909 2.40745L23.8519 2.79445C23.8946 2.80926 23.9316 2.83701 23.9578 2.87384C23.9841 2.91067 23.9981 2.95475 23.9981 2.99995C23.9981 3.04516 23.9841 3.08924 23.9578 3.12607C23.9316 3.1629 23.8946 3.19064 23.8519 3.20545L22.6909 3.59245C22.4351 3.67754 22.2027 3.82108 22.0121 4.01168C21.8215 4.20227 21.678 4.43468 21.5929 4.69045L21.2059 5.85145C21.1911 5.89416 21.1633 5.9312 21.1265 5.95741C21.0897 5.98362 21.0456 5.99771 21.0004 5.99771C20.9552 5.99771 20.9111 5.98362 20.8743 5.95741C20.8374 5.9312 20.8097 5.89416 20.7949 5.85145L20.4079 4.69045C20.3228 4.43468 20.1793 4.20227 19.9887 4.01168C19.7981 3.82108 19.5657 3.67754 19.3099 3.59245L18.1489 3.20545C18.1062 3.19064 18.0691 3.1629 18.0429 3.12607C18.0167 3.08924 18.0026 3.04516 18.0026 2.99995C18.0026 2.95475 18.0167 2.91067 18.0429 2.87384C18.0691 2.83701 18.1062 2.80926 18.1489 2.79445L19.3099 2.40745C19.8289 2.23495 20.2354 1.82845 20.4079 1.30945L20.7949 0.149951V0.148451Z" fill="#706D76"/>
</g>
<defs>
<clipPath id="clip0_12881_13460">
<rect width="24" height="24" fill="white"/>
</clipPath>
</defs>
</svg>
