<svg width="24" height="24" viewBox="0 0 24 24" fill="none" xmlns="http://www.w3.org/2000/svg">
<path fill-rule="evenodd" clip-rule="evenodd" d="M22.3398 13.5818C22.3476 13.5544 22.3539 13.5262 22.3586 13.4974C22.4525 12.9233 22.5 12.3395 22.5 11.75C22.5 5.81294 17.6871 1 11.75 1C5.81294 1 1 5.81294 1 11.75C1 17.6871 5.81294 22.5 11.75 22.5C14.1401 22.5 16.4133 21.717 18.2729 20.2955C18.602 20.0439 18.6649 19.5732 18.4133 19.2441C18.1618 18.9151 17.6911 18.8522 17.362 19.1038C15.7617 20.327 13.808 21 11.75 21C6.64137 21 2.5 16.8586 2.5 11.75C2.5 6.64137 6.64137 2.5 11.75 2.5C16.8586 2.5 21 6.64137 21 11.75C21 12.1455 20.9752 12.5377 20.9262 12.925H20.9C20.9 14.071 19.971 15 18.825 15C17.679 15 16.75 14.071 16.75 12.925V11.75V11.575H16.747C16.6548 8.89462 14.4529 6.75 11.75 6.75C8.98858 6.75 6.75 8.98858 6.75 11.75C6.75 14.5114 8.98858 16.75 11.75 16.75C13.3858 16.75 14.8381 15.9645 15.7503 14.7501C16.3736 15.7979 17.5173 16.5 18.825 16.5C20.5751 16.5 22.0314 15.2425 22.3398 13.5818ZM11.75 8.25C13.683 8.25 15.25 9.817 15.25 11.75C15.25 13.683 13.683 15.25 11.75 15.25C9.817 15.25 8.25 13.683 8.25 11.75C8.25 9.817 9.817 8.25 11.75 8.25Z" fill="#6C78E6"/>
</svg>
