<svg width="24" height="24" viewBox="0 0 24 24" fill="none" xmlns="http://www.w3.org/2000/svg">
<path fill-rule="evenodd" clip-rule="evenodd" d="M6.75 18C6.75 17.5858 6.41421 17.25 6 17.25C4.20507 17.25 2.75 15.7949 2.75 14V7C2.75 5.20507 4.20507 3.75 6 3.75H18C19.7949 3.75 21.25 5.20507 21.25 7V14C21.25 15.7949 19.7949 17.25 18 17.25C17.5858 17.25 17.25 17.5858 17.25 18C17.25 18.4142 17.5858 18.75 18 18.75C20.6234 18.75 22.75 16.6234 22.75 14V7C22.75 4.37665 20.6234 2.25 18 2.25H6C3.37665 2.25 1.25 4.37665 1.25 7V14C1.25 16.6234 3.37665 18.75 6 18.75C6.41421 18.75 6.75 18.4142 6.75 18ZM12 12C11.5858 12 11.25 12.3358 11.25 12.75V20.159L9.53033 18.4393C9.23744 18.1464 8.76256 18.1464 8.46967 18.4393C8.17678 18.7322 8.17678 19.2071 8.46967 19.5L11.4697 22.5C11.7626 22.7929 12.2374 22.7929 12.5303 22.5L15.5303 19.5C15.8232 19.2071 15.8232 18.7322 15.5303 18.4393C15.2374 18.1464 14.7626 18.1464 14.4697 18.4393L12.75 20.159V12.75C12.75 12.3358 12.4142 12 12 12Z" fill="#706D76"/>
</svg>
