<svg width="24" height="24" viewBox="0 0 24 24" fill="none" xmlns="http://www.w3.org/2000/svg">
<path fill-rule="evenodd" clip-rule="evenodd" d="M22 13.5C21.5858 13.5 21.25 13.1642 21.25 12.75V5.75C21.25 4.50736 20.2426 3.5 19 3.5H5C3.75736 3.5 2.75 4.50736 2.75 5.75V14.75C2.75 15.9926 3.75736 17 5 17H9C9.41421 17 9.75 17.3358 9.75 17.75C9.75 18.1642 9.41421 18.5 9 18.5H5C2.92893 18.5 1.25 16.8211 1.25 14.75V5.75C1.25 3.67893 2.92893 2 5 2H19C21.0711 2 22.75 3.67893 22.75 5.75V12.75C22.75 13.1642 22.4142 13.5 22 13.5ZM18.25 6.75C18.6642 6.75 19 7.08579 19 7.5C19 7.91421 18.6642 8.25 18.25 8.25H5.75C5.33579 8.25 5 7.91421 5 7.5C5 7.08579 5.33579 6.75 5.75 6.75H18.25Z" fill="#6C78E6"/>
<path d="M20.159 18.5H12.75C12.3358 18.5 12 18.1642 12 17.75C12 17.3358 12.3358 17 12.75 17H20.159L18.4393 15.2803C18.1464 14.9874 18.1464 14.5126 18.4393 14.2197C18.7322 13.9268 19.2071 13.9268 19.5 14.2197L22.5 17.2197C22.7929 17.5126 22.7929 17.9874 22.5 18.2803L19.5 21.2803C19.2071 21.5732 18.7322 21.5732 18.4393 21.2803C18.1464 20.9874 18.1464 20.5126 18.4393 20.2197L20.159 18.5Z" fill="#6C78E6"/>
</svg>
