<svg width="40" height="28" viewBox="0 0 40 28" fill="none" xmlns="http://www.w3.org/2000/svg">
<rect width="40" height="28" rx="3" fill="#403A47"/>
<mask id="mask0_12825_2055" style="mask-type:luminance" maskUnits="userSpaceOnUse" x="0" y="0" width="40" height="28">
<rect width="40" height="28" rx="3" fill="white"/>
</mask>
<g mask="url(#mask0_12825_2055)">
<path fill-rule="evenodd" clip-rule="evenodd" d="M50.9986 -1.77663L51.0039 -1.78629L50.2934 -2.1796L46.8568 -4.1434L46.8317 -4.09596L9.0703 -25L6.71319 -20.6957L44.5374 0.243105L25.1161 36.9735L29.3769 39.4082L51.1176 -1.70864L50.9986 -1.77663ZM39.9569 3.1308L39.9622 3.12114L39.2516 2.72781L35.815 0.76403L35.7899 0.811472L-1.97142 -20.0926L-4.32854 -15.7883L33.4956 5.15054L14.0743 41.8809L18.3352 44.3157L40.0759 3.1988L39.9569 3.1308ZM29.5286 6.19795L29.5339 6.18829L28.8234 5.79498L25.3867 3.83118L25.3616 3.87862L-12.3997 -17.0254L-14.7568 -12.7211L23.0674 8.21769L3.64605 44.948L7.90689 47.3828L29.6476 6.26595L29.5286 6.19795ZM19.6978 9.29411L19.719 9.25544L16.8737 7.68034L15.4753 6.88122L15.465 6.90052L-22.2146 -13.9583L-24.5717 -9.65398L13.1708 11.2396L-6.26543 47.9981L-2.00458 50.4329L19.7361 9.31599L19.6978 9.29411ZM-12.4329 53.5L-16.6937 51.0652L2.74245 14.3067L-35 -6.58683L-32.6429 -10.8911L5.03675 9.96767L5.04696 9.94836L6.44547 10.7475L9.2907 12.3226L9.26952 12.3613L9.30781 12.3831L-12.4329 53.5Z" fill="#4A4451"/>
</g>
</svg>
