<svg width="16" height="12" viewBox="0 0 16 12" fill="none" xmlns="http://www.w3.org/2000/svg">
<path fill-rule="evenodd" clip-rule="evenodd" d="M5.63664 8.91382L6.44686 3.10129H7.74196L6.93182 8.91382H5.63664ZM11.6296 3.24396L11.4542 4.50401L11.3379 4.43749C11.0989 4.31937 10.7922 4.20632 10.3686 4.21422C9.86136 4.21422 9.62699 4.47277 9.6267 4.71441C9.62351 4.98721 9.90129 5.16576 10.3539 5.43521C11.1013 5.84982 11.4464 6.35208 11.4417 7.01459C11.4314 8.22074 10.5471 9 9.18633 9C8.60529 8.99262 8.04544 8.8521 7.74345 8.6902L7.92456 7.38912L8.09115 7.48165C8.51707 7.69866 8.79255 7.78647 9.31107 7.78647C9.68344 7.78647 10.0828 7.60809 10.0862 7.21881C10.0882 6.96429 9.91869 6.78214 9.41403 6.49749C8.923 6.21979 8.27167 5.75377 8.27981 4.91837C8.28729 3.78888 9.18862 3 10.4691 3C10.9708 3 11.3735 3.1273 11.6296 3.24396ZM13.3541 6.85304H14.4293C14.3781 6.56247 14.1296 5.17511 14.1296 5.17511L14.0422 4.67381C13.9767 4.89167 13.8625 5.2437 13.87 5.22842C13.87 5.22842 13.4614 6.51895 13.3541 6.85304ZM3.14673 6.2634L3.2825 7.06893L4.55013 3.10618H5.92256L3.88302 8.90781L2.51236 8.90875L1.36064 3.86026C0.962459 3.59028 0.508106 3.3732 0 3.22267L0.0172592 3.10224H2.10577C2.38703 3.11511 2.61458 3.2243 2.69288 3.59264L3.14673 6.2634ZM14.9519 3.10721L16 8.91588H14.7979C14.7979 8.91588 14.679 8.24786 14.6402 8.04502C14.4516 8.04502 13.1298 8.04202 12.9814 8.04202C12.9311 8.19928 12.7091 8.91588 12.7091 8.91588H11.3488L13.2722 3.58904C13.4082 3.21005 13.6405 3.10721 13.951 3.10721H14.9519Z" fill="white"/>
</svg>
