<svg width="24" height="24" viewBox="0 0 24 24" fill="none" xmlns="http://www.w3.org/2000/svg">
<path fill-rule="evenodd" clip-rule="evenodd" d="M13.5 2.81066V6H16.6893L13.5 2.81066ZM19.4921 7.1088C19.4973 7.15515 19.5 7.20226 19.5 7.25V16.75C19.5 18.8211 17.8211 20.5 15.75 20.5C15.3358 20.5 15 20.1642 15 19.75C15 19.3358 15.3358 19 15.75 19C16.9926 19 18 17.9926 18 16.75V7.5H13.25C12.5596 7.5 12 6.94036 12 6.25V1.5H7.75C6.50736 1.5 5.5 2.50736 5.5 3.75V13.75C5.5 14.1642 5.16421 14.5 4.75 14.5C4.33579 14.5 4 14.1642 4 13.75V3.75C4 1.67893 5.67893 1.52046e-08 7.75 1.52046e-08H12.25C12.2977 1.52046e-08 12.3449 0.00267623 12.3912 0.00788682C12.6176 -0.0251199 12.8561 0.0454745 13.0303 0.21967L19.2803 6.46967C19.4545 6.64387 19.5251 6.88243 19.4921 7.1088ZM4.75 20.25C4.33579 20.25 4 19.9142 4 19.5C4 19.0858 4.33579 18.75 4.75 18.75H9.90901L8.18934 17.0303C7.89645 16.7374 7.89645 16.2626 8.18934 15.9697C8.48223 15.6768 8.95711 15.6768 9.25 15.9697L12.25 18.9697C12.5429 19.2626 12.5429 19.7374 12.25 20.0303L9.25 23.0303C8.95711 23.3232 8.48223 23.3232 8.18934 23.0303C7.89645 22.7374 7.89645 22.2626 8.18934 21.9697L9.90901 20.25H4.75Z" fill="#6C78E6"/>
</svg>
