<svg width="40" height="40" viewBox="0 0 40 40" fill="none" xmlns="http://www.w3.org/2000/svg">
<path d="M20 40C8.9543 40 0 31.0457 0 20C0 8.9543 8.9543 0 20 0C31.0457 0 40 8.9543 40 20C40 31.0457 31.0457 40 20 40Z" fill="#403A47"/>
<path fill-rule="evenodd" clip-rule="evenodd" d="M22.5 12H18C17.5858 12 17.25 12.3358 17.25 12.75V19.5H15.75C15.3358 19.5 15 19.8358 15 20.25C15 20.6642 15.3358 21 15.75 21H17.25V23H15.75C15.3358 23 15 23.3358 15 23.75C15 24.1642 15.3358 24.5 15.75 24.5H17.25V27.25C17.25 27.6642 17.5858 28 18 28C18.4142 28 18.75 27.6642 18.75 27.25V24.5H20.25C20.6642 24.5 21 24.1642 21 23.75C21 23.3358 20.6642 23 20.25 23H18.75V21H22.5C24.9853 21 27 18.9853 27 16.5C27 14.0147 24.9853 12 22.5 12ZM18.75 19.5V13.5H22.5C24.1569 13.5 25.5 14.8431 25.5 16.5C25.5 18.1569 24.1569 19.5 22.5 19.5H18.75Z" fill="white"/>
</svg>
