<svg width="24" height="24" viewBox="0 0 24 24" fill="none" xmlns="http://www.w3.org/2000/svg">
<path fill-rule="evenodd" clip-rule="evenodd" d="M6.28033 5.21967C5.98744 4.92678 5.51256 4.92678 5.21967 5.21967C4.92678 5.51256 4.92678 5.98744 5.21967 6.28033L10.8159 11.8765L5.21967 17.4727C4.92678 17.7656 4.92678 18.2405 5.21967 18.5334C5.51256 18.8263 5.98744 18.8263 6.28033 18.5334L11.8765 12.9372L17.4727 18.5334C17.7656 18.8263 18.2405 18.8263 18.5334 18.5334C18.8263 18.2405 18.8263 17.7656 18.5334 17.4727L12.9372 11.8765L18.5334 6.28033C18.8263 5.98744 18.8263 5.51256 18.5334 5.21967C18.2405 4.92678 17.7656 4.92678 17.4727 5.21967L11.8765 10.8159L6.28033 5.21967Z" fill="white"/>
</svg>
