<svg width="171" height="192" viewBox="0 0 171 192" fill="none" xmlns="http://www.w3.org/2000/svg">
<g id="Property 1=Normal">
<g id="Group 3065">
<path id="Digital Bank" d="M39.4811 111.999C39.4811 113.316 39.1355 114.313 38.4444 114.99C37.7534 115.663 36.7382 116 35.399 116H33.5191V108.147H35.6407C36.894 108.147 37.8465 108.475 38.4981 109.13C39.1534 109.786 39.4811 110.742 39.4811 111.999ZM38.8849 112.02C38.8849 110.896 38.5984 110.051 38.0255 109.485C37.4562 108.916 36.6183 108.631 35.5118 108.631H34.067V115.517H35.3668C37.7122 115.517 38.8849 114.351 38.8849 112.02ZM44.4857 116V108.147H45.0336V116H44.4857ZM53.5456 112.042H56.4406V115.624C55.6815 115.946 54.8275 116.107 53.8786 116.107C52.6397 116.107 51.689 115.758 51.0266 115.06C50.3677 114.358 50.0383 113.366 50.0383 112.084C50.0383 111.286 50.2012 110.579 50.5271 109.963C50.8565 109.343 51.3256 108.865 51.9343 108.529C52.5466 108.192 53.2484 108.024 54.0397 108.024C54.8955 108.024 55.6636 108.181 56.3439 108.497L56.1237 108.991C55.4434 108.676 54.738 108.518 54.0075 108.518C52.9727 108.518 52.1509 108.839 51.5422 109.479C50.937 110.117 50.6345 110.978 50.6345 112.063C50.6345 113.245 50.9227 114.134 51.4992 114.732C52.0757 115.327 52.9226 115.624 54.0397 115.624C54.7631 115.624 55.3771 115.522 55.882 115.318V112.557H53.5456V112.042ZM61.6172 116V108.147H62.165V116H61.6172ZM69.6351 116H69.0818V108.663H66.5306V108.147H72.1863V108.663H69.6351V116ZM80.3385 113.229H77.148L76.0523 116H75.4454L78.6036 108.115H78.9527L82.0465 116H81.4288L80.3385 113.229ZM77.3468 112.734H80.1559L79.087 109.904C78.9975 109.682 78.8901 109.374 78.7647 108.98C78.6681 109.324 78.5624 109.635 78.4479 109.915L77.3468 112.734ZM86.3637 116V108.147H86.9115V115.484H90.6552V116H86.3637ZM101.271 108.147H103.425C104.396 108.147 105.108 108.312 105.563 108.642C106.018 108.971 106.245 109.469 106.245 110.135C106.245 110.59 106.105 110.969 105.826 111.273C105.55 111.574 105.146 111.768 104.612 111.854V111.886C105.239 111.979 105.699 112.178 105.993 112.482C106.29 112.783 106.438 113.203 106.438 113.744C106.438 114.467 106.199 115.024 105.719 115.415C105.239 115.805 104.559 116 103.678 116H101.271V108.147ZM101.819 111.644H103.549C104.286 111.644 104.822 111.522 105.155 111.279C105.491 111.032 105.66 110.647 105.66 110.124C105.66 109.601 105.47 109.222 105.09 108.985C104.714 108.749 104.152 108.631 103.404 108.631H101.819V111.644ZM101.819 112.127V115.517H103.667C105.121 115.517 105.848 114.926 105.848 113.744C105.848 112.666 105.081 112.127 103.549 112.127H101.819ZM115.149 113.229H111.959L110.863 116H110.256L113.414 108.115H113.763L116.857 116H116.24L115.149 113.229ZM112.158 112.734H114.967L113.898 109.904C113.808 109.682 113.701 109.374 113.575 108.98C113.479 109.324 113.373 109.635 113.259 109.915L112.158 112.734ZM126.884 116H126.331L121.679 109.028H121.636C121.679 109.859 121.701 110.486 121.701 110.908V116H121.174V108.147H121.722L126.368 115.108H126.4C126.368 114.464 126.352 113.852 126.352 113.271V108.147H126.884V116ZM137.593 116H136.921L133.908 111.854L132.861 112.777V116H132.313V108.147H132.861V112.229L133.731 111.359L136.808 108.147H137.507L134.289 111.467L137.593 116Z" fill="white"/>
<g id="Frame" clip-path="url(#clip0_14_27356)">
<path id="Vector" d="M114.798 91.8244H136V94.5586H114.798V91.8244ZM114.798 82.6619H136V85.396H114.798V82.6619ZM114.798 73.5021H136V76.2363H114.798V73.5021ZM69.3964 95C63.2379 95 58.2463 90.0752 58.2463 84C58.2463 77.9248 63.2389 73 69.3964 73C75.5548 73 80.5464 77.9248 80.5464 84C80.5408 90.0725 75.552 94.9936 69.3964 95ZM69.3964 75.7341C64.7627 75.7341 61.0066 79.4403 61.0066 84.011C61.0066 88.5817 64.7627 92.2879 69.3964 92.2879C74.03 92.2879 77.7861 88.5817 77.7861 84.011C77.7873 82.9226 77.5712 81.8446 77.1502 80.839C76.7291 79.8333 76.1114 78.9199 75.3326 78.151C73.757 76.5959 71.6221 75.7227 69.3964 75.7231V75.7341ZM104.939 76.1259V91.7775H89.0737V76.1259H104.939ZM107.711 73.3918H86.3022V94.5117H107.711V73.3918ZM33 73.4497H35.7715V94.5503H33V73.4497ZM51.4557 94.4565L40.9035 84.0469L51.5505 73.5435L53.5085 75.4748L44.8222 84.0469L53.4128 92.5252L51.4557 94.4565Z" fill="white"/>
</g>
</g>
</g>
<defs>
<clipPath id="clip0_14_27356">
<rect width="103" height="22" fill="white" transform="translate(33 73)"/>
</clipPath>
</defs>
</svg>
