<svg width="148" height="148" viewBox="0 0 148 148" fill="none" xmlns="http://www.w3.org/2000/svg">
<circle cx="74" cy="74" r="74" fill="#403A47"/>
<mask id="path-2-inside-1_15_31349" fill="white">
<path fill-rule="evenodd" clip-rule="evenodd" d="M26.7939 58.2975C26.0422 58.9588 25.3045 59.6356 24.5813 60.3275L26.7032 62.4493L33.7765 69.5226C44.2606 59.5914 58.419 53.5 74.0001 53.5C89.5811 53.5 103.74 59.5914 114.224 69.5226L121.297 62.4493L123.419 60.3275C122.696 59.6356 121.958 58.9588 121.206 58.2975C108.613 47.2189 92.0911 40.5 74.0001 40.5C55.909 40.5 39.3872 47.2189 26.7939 58.2975ZM28.9198 60.4233L33.882 65.3855C44.6496 56.1107 58.6724 50.5 74.0001 50.5C89.3277 50.5 103.351 56.1107 114.118 65.3855L119.08 60.4233C107.032 49.8832 91.2642 43.5 74.0001 43.5C56.7359 43.5 40.9683 49.8832 28.9198 60.4233ZM104.956 74.5475C96.556 67.6471 85.7691 63.5 74.0001 63.5C62.231 63.5 51.4441 67.6471 43.0439 74.5475L48.0215 79.525C55.1322 73.879 64.169 70.5 74.0001 70.5C83.8312 70.5 92.868 73.879 99.9787 79.525L104.956 74.5475ZM107.087 72.4166C98.1357 64.9779 86.5932 60.5 74.0001 60.5C61.407 60.5 49.8644 64.9779 40.9131 72.4166C40.1418 73.0575 39.3899 73.7204 38.6581 74.4042L40.7807 76.5268L47.8574 83.6036C54.7206 77.3339 63.9035 73.5 74.0001 73.5C84.0966 73.5 93.2795 77.3339 100.143 83.6036L107.219 76.5268L109.342 74.4042C108.61 73.7204 107.858 73.0575 107.087 72.4166ZM53.7249 85.2284C52.9196 85.8323 52.1428 86.4713 51.397 87.1432L53.5215 89.2676L60.6096 96.3557C64.1979 93.3318 68.8749 91.5 74.0001 91.5C79.1252 91.5 83.8022 93.3318 87.3905 96.3557L94.4786 89.2676L96.6031 87.1432C95.8573 86.4713 95.0805 85.8323 94.2752 85.2284C88.6431 81.0052 81.6145 78.5 74.0001 78.5C66.3856 78.5 59.357 81.0052 53.7249 85.2284ZM55.8699 87.3734L60.8991 92.4026C64.6432 89.9374 69.1522 88.5 74.0001 88.5C78.8479 88.5 83.3569 89.9374 87.101 92.4026L92.1302 87.3734C87.0612 83.6822 80.7906 81.5 74.0001 81.5C67.2095 81.5 60.9389 83.6822 55.8699 87.3734ZM78.2097 101.294C76.9069 100.781 75.4875 100.5 74.0001 100.5C72.5126 100.5 71.0933 100.781 69.7905 101.294L74.0001 105.504L78.2097 101.294ZM80.4791 99.0245C78.5292 98.0489 76.3287 97.5 74.0001 97.5C71.6714 97.5 69.4709 98.0489 67.521 99.0245C66.5989 99.4858 65.7328 100.043 64.9356 100.682L67.0731 102.819L71.8787 107.625C73.0503 108.796 74.9498 108.796 76.1214 107.625L80.927 102.819L83.0645 100.682C82.2674 100.043 81.4013 99.4858 80.4791 99.0245Z"/>
</mask>
<path d="M24.5813 60.3275L22.5075 58.1597C21.9242 58.7176 21.5904 59.4871 21.5815 60.2942C21.5725 61.1013 21.8892 61.878 22.46 62.4488L24.5813 60.3275ZM26.7939 58.2975L24.8124 56.045H24.8124L26.7939 58.2975ZM26.7032 62.4493L28.8245 60.328H28.8245L26.7032 62.4493ZM33.7765 69.5226L31.6551 71.6439C32.8043 72.7931 34.6597 72.8183 35.8396 71.7006L33.7765 69.5226ZM114.224 69.5226L112.161 71.7006C113.34 72.8183 115.196 72.7931 116.345 71.6439L114.224 69.5226ZM121.297 62.4493L119.176 60.328L121.297 62.4493ZM123.419 60.3275L125.54 62.4488C126.111 61.878 126.428 61.1013 126.419 60.2942C126.41 59.4871 126.076 58.7176 125.493 58.1597L123.419 60.3275ZM121.206 58.2975L119.225 60.5499V60.5499L121.206 58.2975ZM33.882 65.3855L31.7607 67.5068C32.8711 68.6173 34.65 68.6834 35.8399 67.6585L33.882 65.3855ZM28.9198 60.4233L26.9445 58.1653C26.3195 58.7121 25.9491 59.4934 25.9214 60.3233C25.8938 61.1532 26.2113 61.9575 26.7985 62.5446L28.9198 60.4233ZM114.118 65.3855L112.16 67.6585C113.35 68.6834 115.129 68.6173 116.239 67.5068L114.118 65.3855ZM119.08 60.4233L121.202 62.5446C121.789 61.9575 122.106 61.1532 122.079 60.3233C122.051 59.4934 121.681 58.7121 121.056 58.1653L119.08 60.4233ZM104.956 74.5475L107.077 76.6688C107.676 76.0702 107.994 75.2465 107.953 74.401C107.911 73.5554 107.515 72.7667 106.86 72.2293L104.956 74.5475ZM43.0439 74.5475L41.1397 72.2293C40.4855 72.7667 40.0889 73.5554 40.0475 74.401C40.0062 75.2465 40.324 76.0702 40.9226 76.6688L43.0439 74.5475ZM48.0215 79.525L45.9001 81.6463C46.9781 82.7242 48.6931 82.8224 49.8869 81.8744L48.0215 79.525ZM99.9787 79.525L98.1132 81.8744C99.307 82.8224 101.022 82.7242 102.1 81.6463L99.9787 79.525ZM107.087 72.4166L109.004 70.1093L109.004 70.1093L107.087 72.4166ZM40.9131 72.4166L38.9957 70.1093H38.9957L40.9131 72.4166ZM38.6581 74.4042L36.6097 72.2124C36.0155 72.7677 35.6723 73.5404 35.6585 74.3535C35.6448 75.1666 35.9617 75.9505 36.5368 76.5256L38.6581 74.4042ZM40.7807 76.5268L38.6594 78.6482L40.7807 76.5268ZM47.8574 83.6036L45.7361 85.7249C46.8704 86.8592 48.6964 86.9005 49.8808 85.8185L47.8574 83.6036ZM100.143 83.6036L98.1193 85.8185C99.3037 86.9005 101.13 86.8592 102.264 85.7249L100.143 83.6036ZM107.219 76.5268L105.098 74.4055L107.219 76.5268ZM109.342 74.4042L111.463 76.5256C112.038 75.9505 112.355 75.1666 112.342 74.3535C112.328 73.5404 111.985 72.7677 111.39 72.2124L109.342 74.4042ZM51.397 87.1432L49.3892 84.9141C48.7778 85.4648 48.4195 86.2424 48.398 87.0649C48.3766 87.8874 48.6939 88.6827 49.2757 89.2645L51.397 87.1432ZM53.7249 85.2284L51.9251 82.8283L53.7249 85.2284ZM53.5215 89.2676L51.4002 91.389L53.5215 89.2676ZM60.6096 96.3557L58.4883 98.4771C59.5899 99.5787 61.3515 99.6537 62.5428 98.6498L60.6096 96.3557ZM87.3905 96.3557L85.4573 98.6498C86.6487 99.6537 88.4102 99.5787 89.5119 98.4771L87.3905 96.3557ZM94.4786 89.2676L96.5999 91.389L94.4786 89.2676ZM96.6031 87.1432L98.7244 89.2645C99.3062 88.6827 99.6236 87.8874 99.6021 87.0649C99.5806 86.2424 99.2223 85.4648 98.6109 84.9141L96.6031 87.1432ZM94.2752 85.2284L96.075 82.8283V82.8283L94.2752 85.2284ZM60.8991 92.4026L58.7778 94.5239C59.7844 95.5305 61.3598 95.6911 62.5488 94.9082L60.8991 92.4026ZM55.8699 87.3734L54.1039 84.9483C53.395 85.4646 52.9474 86.2653 52.8791 87.1397C52.8107 88.0141 53.1284 88.8746 53.7486 89.4948L55.8699 87.3734ZM87.101 92.4026L85.4513 94.9083C86.6403 95.6911 88.2157 95.5305 89.2224 94.5239L87.101 92.4026ZM92.1302 87.3734L94.2515 89.4948C94.8717 88.8746 95.1894 88.0141 95.1211 87.1397C95.0527 86.2653 94.6052 85.4646 93.8962 84.9483L92.1302 87.3734ZM78.2097 101.294L80.331 103.415C81.0462 102.7 81.3528 101.673 81.1467 100.683C80.9406 99.6924 80.2494 98.8727 79.3082 98.5023L78.2097 101.294ZM69.7905 101.294L68.6919 98.5023C67.7507 98.8727 67.0596 99.6924 66.8534 100.683C66.6473 101.673 66.954 102.7 67.6691 103.415L69.7905 101.294ZM74.0001 105.504L71.8787 107.625C73.0503 108.796 74.9498 108.796 76.1214 107.625L74.0001 105.504ZM80.4791 99.0245L81.8214 96.3415L80.4791 99.0245ZM67.521 99.0245L68.8633 101.707L67.521 99.0245ZM64.9356 100.682L63.0588 98.3414C62.3936 98.8748 61.9868 99.6662 61.9401 100.518C61.8935 101.369 62.2114 102.2 62.8143 102.803L64.9356 100.682ZM67.0731 102.819L69.1944 100.698L67.0731 102.819ZM71.8787 107.625L69.7574 109.746V109.746L71.8787 107.625ZM83.0645 100.682L85.1858 102.803C85.7888 102.2 86.1066 101.369 86.06 100.518C86.0133 99.6662 85.6065 98.8748 84.9413 98.3414L83.0645 100.682ZM26.6551 62.4952C27.3482 61.8322 28.0551 61.1836 28.7755 60.5499L24.8124 56.045C24.0293 56.7339 23.2609 57.439 22.5075 58.1597L26.6551 62.4952ZM28.8245 60.328L26.7026 58.2061L22.46 62.4488L24.5818 64.5706L28.8245 60.328ZM35.8978 67.4013L28.8245 60.328L24.5818 64.5706L31.6551 71.6439L35.8978 67.4013ZM74.0001 50.5C57.6213 50.5 42.7325 56.9066 31.7133 67.3446L35.8396 71.7006C45.7888 62.2761 59.2166 56.5 74.0001 56.5V50.5ZM116.287 67.3446C105.268 56.9066 90.3788 50.5 74.0001 50.5V56.5C88.7835 56.5 102.211 62.2761 112.161 71.7006L116.287 67.3446ZM119.176 60.328L112.102 67.4013L116.345 71.6439L123.418 64.5706L119.176 60.328ZM121.297 58.2061L119.176 60.328L123.418 64.5706L125.54 62.4488L121.297 58.2061ZM119.225 60.5499C119.945 61.1836 120.652 61.8322 121.345 62.4952L125.493 58.1597C124.739 57.439 123.971 56.7339 123.188 56.045L119.225 60.5499ZM74.0001 43.5C91.3341 43.5 107.158 49.9346 119.225 60.5499L123.188 56.045C110.068 44.5032 92.8481 37.5 74.0001 37.5V43.5ZM28.7755 60.5499C40.8421 49.9346 56.666 43.5 74.0001 43.5V37.5C55.152 37.5 37.9323 44.5032 24.8124 56.045L28.7755 60.5499ZM36.0033 63.2642L31.0411 58.302L26.7985 62.5446L31.7607 67.5068L36.0033 63.2642ZM74.0001 47.5C57.9268 47.5 43.2154 53.3866 31.9241 63.1125L35.8399 67.6585C46.0838 58.8349 59.418 53.5 74.0001 53.5V47.5ZM116.076 63.1125C104.785 53.3866 90.0733 47.5 74.0001 47.5V53.5C88.5821 53.5 101.916 58.8349 112.16 67.6585L116.076 63.1125ZM116.959 58.302L111.997 63.2642L116.239 67.5068L121.202 62.5446L116.959 58.302ZM74.0001 46.5C90.5104 46.5 105.583 52.6012 117.105 62.6812L121.056 58.1653C108.481 47.1651 92.018 40.5 74.0001 40.5V46.5ZM30.8951 62.6812C42.4176 52.6012 57.4897 46.5 74.0001 46.5V40.5C55.9821 40.5 39.519 47.1651 26.9445 58.1653L30.8951 62.6812ZM74.0001 66.5C85.0524 66.5 95.171 70.3918 103.052 76.8656L106.86 72.2293C97.9409 64.9023 86.4858 60.5 74.0001 60.5V66.5ZM44.9482 76.8656C52.8291 70.3918 62.9477 66.5 74.0001 66.5V60.5C61.5143 60.5 50.0592 64.9023 41.1397 72.2293L44.9482 76.8656ZM50.1428 77.4036L45.1653 72.4261L40.9226 76.6688L45.9001 81.6463L50.1428 77.4036ZM74.0001 67.5C63.4709 67.5 53.7808 71.1213 46.156 77.1755L49.8869 81.8744C56.4835 76.6367 64.8671 73.5 74.0001 73.5V67.5ZM101.844 77.1755C94.2193 71.1213 84.5293 67.5 74.0001 67.5V73.5C83.1331 73.5 91.5166 76.6367 98.1132 81.8744L101.844 77.1755ZM102.835 72.4261L97.8573 77.4036L102.1 81.6463L107.077 76.6688L102.835 72.4261ZM74.0001 63.5C85.8701 63.5 96.7393 67.7182 105.17 74.7239L109.004 70.1093C99.5321 62.2377 87.3162 57.5 74.0001 57.5V63.5ZM42.8305 74.7239C51.2608 67.7182 62.13 63.5 74.0001 63.5V57.5C60.6839 57.5 48.468 62.2377 38.9957 70.1093L42.8305 74.7239ZM40.7065 76.5961C41.3957 75.9519 42.104 75.3276 42.8305 74.7239L38.9957 70.1093C38.1797 70.7874 37.384 71.4888 36.6097 72.2124L40.7065 76.5961ZM42.902 74.4055L40.7794 72.2829L36.5368 76.5256L38.6594 78.6482L42.902 74.4055ZM49.9787 81.4822L42.902 74.4055L38.6594 78.6482L45.7361 85.7249L49.9787 81.4822ZM74.0001 70.5C63.1305 70.5 53.232 74.6305 45.834 81.3886L49.8808 85.8185C56.2093 80.0373 64.6765 76.5 74.0001 76.5V70.5ZM102.166 81.3886C94.7681 74.6305 84.8696 70.5 74.0001 70.5V76.5C83.3236 76.5 91.7908 80.0373 98.1193 85.8185L102.166 81.3886ZM105.098 74.4055L98.0214 81.4822L102.264 85.7249L109.341 78.6482L105.098 74.4055ZM107.221 72.2829L105.098 74.4055L109.341 78.6482L111.463 76.5256L107.221 72.2829ZM105.17 74.7239C105.896 75.3276 106.604 75.9519 107.294 76.5961L111.39 72.2124C110.616 71.4888 109.82 70.7874 109.004 70.1093L105.17 74.7239ZM53.4048 89.3722C54.0839 88.7605 54.7913 88.1786 55.5247 87.6286L51.9251 82.8283C51.0479 83.4861 50.2017 84.1822 49.3892 84.9141L53.4048 89.3722ZM55.6428 87.1463L53.5183 85.0218L49.2757 89.2645L51.4002 91.389L55.6428 87.1463ZM62.7309 94.2344L55.6428 87.1463L51.4002 91.389L58.4883 98.4771L62.7309 94.2344ZM74.0001 88.5C68.1489 88.5 62.7914 90.5939 58.6764 94.0617L62.5428 98.6498C65.6045 96.0697 69.6009 94.5 74.0001 94.5V88.5ZM89.3238 94.0617C85.2088 90.5939 79.8513 88.5 74.0001 88.5V94.5C78.3992 94.5 82.3956 96.0697 85.4573 98.6498L89.3238 94.0617ZM92.3573 87.1463L85.2692 94.2344L89.5119 98.4771L96.5999 91.389L92.3573 87.1463ZM94.4818 85.0218L92.3573 87.1463L96.5999 91.389L98.7244 89.2645L94.4818 85.0218ZM92.4754 87.6286C93.2088 88.1786 93.9162 88.7605 94.5953 89.3722L98.6109 84.9141C97.7984 84.1822 96.9522 83.4861 96.075 82.8283L92.4754 87.6286ZM74.0001 81.5C80.9471 81.5 87.3476 83.7835 92.4754 87.6286L96.075 82.8283C89.9386 78.2269 82.282 75.5 74.0001 75.5V81.5ZM55.5247 87.6286C60.6525 83.7835 67.053 81.5 74.0001 81.5V75.5C65.7181 75.5 58.0615 78.2269 51.9251 82.8283L55.5247 87.6286ZM63.0204 90.2813L57.9913 85.2521L53.7486 89.4948L58.7778 94.5239L63.0204 90.2813ZM74.0001 85.5C68.5521 85.5 63.4717 87.1169 59.2493 89.8969L62.5488 94.9082C65.8148 92.7579 69.7523 91.5 74.0001 91.5V85.5ZM88.7508 89.8969C84.5284 87.1169 79.448 85.5 74.0001 85.5V91.5C78.2478 91.5 82.1854 92.7579 85.4513 94.9083L88.7508 89.8969ZM90.0089 85.2521L84.9797 90.2813L89.2224 94.5239L94.2515 89.4948L90.0089 85.2521ZM74.0001 84.5C80.1385 84.5 85.794 86.4705 90.3642 89.7986L93.8962 84.9483C88.3284 80.8939 81.4427 78.5 74.0001 78.5V84.5ZM57.6359 89.7986C62.2062 86.4705 67.8616 84.5 74.0001 84.5V78.5C66.5574 78.5 59.6717 80.8939 54.1039 84.9483L57.6359 89.7986ZM74.0001 103.5C75.1063 103.5 76.1533 103.709 77.1111 104.086L79.3082 98.5023C77.6604 97.8539 75.8688 97.5 74.0001 97.5V103.5ZM70.889 104.086C71.8469 103.709 72.8939 103.5 74.0001 103.5V97.5C72.1313 97.5 70.3397 97.8539 68.6919 98.5023L70.889 104.086ZM76.1214 103.382L71.9118 99.1726L67.6691 103.415L71.8787 107.625L76.1214 103.382ZM76.0883 99.1726L71.8787 103.382L76.1214 107.625L80.331 103.415L76.0883 99.1726ZM74.0001 100.5C75.8523 100.5 77.5942 100.936 79.1368 101.707L81.8214 96.3415C79.4642 95.1622 76.8051 94.5 74.0001 94.5V100.5ZM68.8633 101.707C70.4059 100.936 72.1478 100.5 74.0001 100.5V94.5C71.195 94.5 68.5359 95.1622 66.1787 96.3415L68.8633 101.707ZM66.8125 103.022C67.4455 102.515 68.1326 102.073 68.8633 101.707L66.1787 96.3415C65.0651 96.8987 64.02 97.5706 63.0588 98.3414L66.8125 103.022ZM69.1944 100.698L67.057 98.5605L62.8143 102.803L64.9518 104.941L69.1944 100.698ZM74.0001 105.504L69.1944 100.698L64.9518 104.941L69.7574 109.746L74.0001 105.504ZM74.0001 105.504H74.0001L69.7574 109.746C72.1006 112.089 75.8996 112.089 78.2427 109.746L74.0001 105.504ZM78.8057 100.698L74.0001 105.504L78.2427 109.746L83.0483 104.941L78.8057 100.698ZM80.9432 98.5605L78.8057 100.698L83.0483 104.941L85.1858 102.803L80.9432 98.5605ZM79.1368 101.707C79.8675 102.073 80.5546 102.515 81.1877 103.022L84.9413 98.3414C83.9801 97.5706 82.935 96.8987 81.8214 96.3415L79.1368 101.707Z" fill="#6C78E6" mask="url(#path-2-inside-1_15_31349)"/>
<path d="M109.561 32.611L108.5 31.5503L107.439 32.611L36.0216 104.029L34.961 105.089L36.0216 106.15L38.85 108.979L39.9107 110.039L40.9714 108.979L112.389 37.5607L113.45 36.5001L112.389 35.4394L109.561 32.611Z" fill="#F678BA" stroke="#403A47" stroke-width="3"/>
</svg>
