<svg width="24" height="24" viewBox="0 0 24 24" fill="none" xmlns="http://www.w3.org/2000/svg">
<path fill-rule="evenodd" clip-rule="evenodd" d="M14.3911 1.90856C14.0275 1.71022 13.8935 1.25464 14.0918 0.891003C14.2902 0.527367 14.7458 0.393373 15.1094 0.59172C18.9067 2.66295 21.6837 5.44003 23.4211 8.91473C23.6063 9.28522 23.4562 9.73572 23.0857 9.92096C22.7152 10.1062 22.2647 9.95604 22.0795 9.58555C20.4835 6.39359 17.9272 3.83734 14.3911 1.90856ZM21.3881 17.4318C21.4039 16.6427 20.85 15.9917 20.1116 15.8875C19.1065 15.7549 18.1271 15.5112 17.1799 15.1578C16.6339 14.9525 16.016 15.0845 15.6056 15.4902L14.0331 17.0627L13.0177 16.4155C10.9885 15.122 9.26672 13.4002 7.97327 11.3711L7.32598 10.3556L8.17748 9.50414L8.88867 8.79298C9.30408 8.37291 9.43629 7.75505 9.22883 7.20314C8.87782 6.26248 8.63393 5.28309 8.5043 4.29973C8.39775 3.54573 7.75663 2.99316 6.98826 3.00065L3.99954 3.0006C3.57761 3.001 3.17609 3.1783 2.89217 3.48932C2.6083 3.80029 2.4682 4.21625 2.5038 4.61226C2.82509 7.63882 3.84941 10.5343 5.50488 13.0898C6.99665 15.4375 8.99293 17.4332 11.358 18.9361C13.8825 20.5733 16.7638 21.5977 19.7354 21.9209C20.1727 21.9605 20.5901 21.8203 20.9022 21.534C21.2134 21.2485 21.3898 20.845 21.3881 20.4165L21.3881 17.4318ZM22.8881 17.4318L22.8881 20.4165C22.8915 21.2613 22.5387 22.0683 21.9162 22.6393C21.2938 23.2104 20.4594 23.4926 19.6001 23.4147C16.3674 23.0635 13.2623 21.9589 10.5418 20.1946C8.00173 18.5805 5.84819 16.427 4.23885 13.8943C2.46343 11.1537 1.35855 8.03338 1.01219 4.7706C0.936396 3.93191 1.21659 3.09998 1.78433 2.47803C2.35207 1.85609 3.15508 1.50139 3.99813 1.5006L6.98829 1.50065C8.49408 1.48583 9.77754 2.5896 9.98954 4.08984C10.1063 4.97514 10.3228 5.84438 10.6342 6.67874C11.0463 7.77505 10.7827 9.01095 9.95523 9.84771L9.23814 10.5648C10.414 12.4094 11.9793 13.9747 13.8239 15.1506L14.545 14.4295C15.3778 13.606 16.6137 13.3424 17.7077 13.7537C18.5443 14.0659 19.4136 14.2824 20.3078 14.4004C21.8117 14.6126 22.919 15.9148 22.8881 17.4318ZM14.1072 4.86427C13.894 5.21946 14.0092 5.68015 14.3644 5.89326C15.9255 6.82992 17.1705 8.07491 18.1072 9.63601C18.3203 9.9912 18.781 10.1064 19.1361 9.89326C19.4913 9.68015 19.6065 9.21946 19.3934 8.86427C18.3301 7.09204 16.9084 5.67036 15.1361 4.60702C14.781 4.39391 14.3203 4.50908 14.1072 4.86427Z" fill="#706D76"/>
</svg>
