<svg width="24" height="24" viewBox="0 0 24 24" fill="none" xmlns="http://www.w3.org/2000/svg">
<path fill-rule="evenodd" clip-rule="evenodd" d="M19.5401 6.33057C19.8297 6.62665 19.8245 7.1015 19.5285 7.39117C19.2324 7.68084 18.7575 7.67564 18.4679 7.37956C17.299 6.18487 15.7049 5.5 14 5.5C11.4371 5.5 9.2345 7.04262 8.27005 9.25H13.25C13.6642 9.25 14 9.58579 14 10C14 10.4142 13.6642 10.75 13.25 10.75H7.82957C7.77721 11.0756 7.75 11.4096 7.75 11.75C7.75 12.0904 7.77721 12.4244 7.82957 12.75H13.25C13.6642 12.75 14 13.0858 14 13.5C14 13.9142 13.6642 14.25 13.25 14.25H8.27005C9.2345 16.4574 11.4371 18 14 18C15.7058 18 17.3007 17.3144 18.4697 16.1186C18.7592 15.8224 19.2341 15.817 19.5303 16.1065C19.8265 16.3961 19.8319 16.8709 19.5423 17.1671C18.094 18.6488 16.1137 19.5 14 19.5C10.5945 19.5 7.7021 17.3035 6.66207 14.25H4.75C4.33579 14.25 4 13.9142 4 13.5C4 13.0858 4.33579 12.75 4.75 12.75H6.31392C6.27175 12.4226 6.25 12.0889 6.25 11.75C6.25 11.4111 6.27175 11.0774 6.31392 10.75H4.75C4.33579 10.75 4 10.4142 4 10C4 9.58579 4.33579 9.25 4.75 9.25H6.66207C7.7021 6.19647 10.5945 4 14 4C16.1126 4 18.0919 4.85033 19.5401 6.33057Z" fill="white"/>
</svg>
