<svg width="53" height="59" viewBox="0 0 53 59" fill="none" xmlns="http://www.w3.org/2000/svg">
<g id="Property 1=Small" clip-path="url(#clip0_14_27425)">
<g id="Group 3065">
<path id="Digital Bank" d="M3.74053 37.4993C3.74053 38.1581 3.56776 38.6567 3.22222 38.9951C2.87668 39.3317 2.36911 39.5 1.69951 39.5H0.759571V35.5737H1.82036C2.44699 35.5737 2.92323 35.7375 3.24907 36.0652C3.57671 36.3928 3.74053 36.8708 3.74053 37.4993ZM3.44243 37.51C3.44243 36.9478 3.2992 36.5253 3.01274 36.2424C2.72808 35.9578 2.30913 35.8154 1.75591 35.8154H1.0335V39.2583H1.6834C2.85609 39.2583 3.44243 38.6755 3.44243 37.51ZM6.24287 39.5V35.5737H6.5168V39.5H6.24287ZM10.7728 37.5208H12.2203V39.312C11.8408 39.4731 11.4138 39.5537 10.9393 39.5537C10.3198 39.5537 9.8445 39.3792 9.51328 39.03C9.18385 38.6791 9.01914 38.1832 9.01914 37.5422C9.01914 37.143 9.1006 36.7894 9.26353 36.4814C9.42824 36.1717 9.66278 35.9327 9.96714 35.7644C10.2733 35.5961 10.6242 35.512 11.0199 35.512C11.4478 35.512 11.8318 35.5907 12.172 35.7483L12.0619 35.9954C11.7217 35.8378 11.369 35.759 11.0038 35.759C10.4863 35.759 10.0755 35.9193 9.77109 36.2397C9.46852 36.5584 9.31724 36.989 9.31724 37.5315C9.31724 38.1223 9.46136 38.5672 9.74961 38.8662C10.0379 39.1634 10.4613 39.312 11.0199 39.312C11.3815 39.312 11.6886 39.261 11.941 39.1589V37.7786H10.7728V37.5208ZM14.8086 39.5V35.5737H15.0825V39.5H14.8086ZM18.8175 39.5H18.5409V35.8315H17.2653V35.5737H20.0932V35.8315H18.8175V39.5ZM24.1692 38.1143H22.574L22.0262 39.5H21.7227L23.3018 35.5576H23.4764L25.0232 39.5H24.7144L24.1692 38.1143ZM22.6734 37.8672H24.0779L23.5435 36.4519C23.4987 36.3409 23.445 36.1869 23.3824 35.99C23.334 36.1619 23.2812 36.3176 23.2239 36.4573L22.6734 37.8672ZM27.1818 39.5V35.5737H27.4558V39.2422H29.3276V39.5H27.1818ZM34.6357 35.5737H35.7126C36.1978 35.5737 36.5541 35.6561 36.7815 35.8208C37.0089 35.9855 37.1226 36.2344 37.1226 36.5674C37.1226 36.7948 37.0527 36.9845 36.9131 37.1367C36.7752 37.2871 36.5729 37.3838 36.3062 37.4268V37.4429C36.6195 37.4894 36.8495 37.5888 36.9963 37.741C37.1449 37.8914 37.2192 38.1017 37.2192 38.3721C37.2192 38.7337 37.0993 39.0121 36.8594 39.2073C36.6195 39.4024 36.2793 39.5 35.8389 39.5H34.6357V35.5737ZM34.9097 37.322H35.7744C36.1432 37.322 36.4109 37.2611 36.5774 37.1394C36.7457 37.0159 36.8298 36.8234 36.8298 36.562C36.8298 36.3006 36.7349 36.1108 36.5452 35.9927C36.3572 35.8745 36.0761 35.8154 35.7019 35.8154H34.9097V37.322ZM34.9097 37.5637V39.2583H35.8335C36.5604 39.2583 36.9238 38.9629 36.9238 38.3721C36.9238 37.8332 36.5407 37.5637 35.7744 37.5637H34.9097ZM41.5746 38.1143H39.9794L39.4315 39.5H39.1281L40.7072 35.5576H40.8817L42.4286 39.5H42.1198L41.5746 38.1143ZM40.0788 37.8672H41.4833L40.9489 36.4519C40.9041 36.3409 40.8504 36.1869 40.7877 35.99C40.7394 36.1619 40.6866 36.3176 40.6293 36.4573L40.0788 37.8672ZM47.4419 39.5H47.1653L44.8396 36.0142H44.8182C44.8396 36.4295 44.8504 36.7428 44.8504 36.9541V39.5H44.5872V35.5737H44.8611L47.1841 39.0542H47.2002C47.1841 38.7319 47.1761 38.4258 47.1761 38.1357V35.5737H47.4419V39.5ZM52.7963 39.5H52.4606L50.9541 37.4268L50.4304 37.8887V39.5H50.1564V35.5737H50.4304V37.6147L50.8654 37.1797L52.4042 35.5737H52.7534L51.1447 37.2334L52.7963 39.5Z" fill="white"/>
<g id="Frame" clip-path="url(#clip1_14_27425)">
<path id="Vector" d="M41.399 27.4122H52V28.7793H41.399V27.4122ZM41.399 22.831H52V24.198H41.399V22.831ZM41.399 18.2511H52V19.6181H41.399V18.2511ZM18.6982 29C15.619 29 13.1232 26.5376 13.1232 23.5C13.1232 20.4624 15.6194 18 18.6982 18C21.7774 18 24.2732 20.4624 24.2732 23.5C24.2704 26.5362 21.776 28.9968 18.6982 29ZM18.6982 19.3671C16.3813 19.3671 14.5033 21.2202 14.5033 23.5055C14.5033 25.7909 16.3813 27.644 18.6982 27.644C21.015 27.644 22.893 25.7909 22.893 23.5055C22.8937 22.9613 22.7856 22.4223 22.5751 21.9195C22.3646 21.4167 22.0557 20.9599 21.6663 20.5755C20.8785 19.7979 19.811 19.3613 18.6982 19.3615V19.3671ZM36.4696 19.563V27.3888H28.5369V19.563H36.4696ZM37.8554 18.1959H27.1511V28.7558H37.8554V18.1959ZM0.5 18.2249H1.88574V28.7751H0.5V18.2249ZM9.72786 28.7282L4.45174 23.5235L9.77527 18.2718L10.7543 19.2374L6.41111 23.5235L10.7064 27.7626L9.72786 28.7282Z" fill="white"/>
</g>
</g>
</g>
<defs>
<clipPath id="clip0_14_27425">
<rect width="53" height="59" fill="white"/>
</clipPath>
<clipPath id="clip1_14_27425">
<rect width="51.5" height="11" fill="white" transform="translate(0.5 18)"/>
</clipPath>
</defs>
</svg>
